<svg width="101" height="100" viewBox="0 0 101 100" fill="none" xmlns="http://www.w3.org/2000/svg">
<path d="M50.5 91.6667C44.8056 91.6667 39.4236 90.5729 34.3542 88.3854C29.2848 86.1979 24.8577 83.2118 21.073 79.4271C17.2882 75.6424 14.3021 71.2153 12.1146 66.1458C9.92712 61.0764 8.83337 55.6945 8.83337 50C8.83337 44.2361 9.92712 38.8368 12.1146 33.8021C14.3021 28.7674 17.2882 24.3576 21.073 20.5729C24.8577 16.7882 29.2848 13.8021 34.3542 11.6146C39.4236 9.42709 44.8056 8.33334 50.5 8.33334C51.6806 8.33334 52.6702 8.73265 53.4688 9.53126C54.2674 10.3299 54.6667 11.3195 54.6667 12.5C54.6667 13.6806 54.2674 14.6701 53.4688 15.4688C52.6702 16.2674 51.6806 16.6667 50.5 16.6667C41.2639 16.6667 33.3993 19.9132 26.9063 26.4063C20.4132 32.8993 17.1667 40.7639 17.1667 50C17.1667 59.2361 20.4132 67.1007 26.9063 73.5938C33.3993 80.0868 41.2639 83.3333 50.5 83.3333C59.7361 83.3333 67.6007 80.0868 74.0938 73.5938C80.5868 67.1007 83.8334 59.2361 83.8334 50C83.8334 48.8195 84.2327 47.8299 85.0313 47.0313C85.8299 46.2326 86.8195 45.8333 88 45.8333C89.1806 45.8333 90.1702 46.2326 90.9688 47.0313C91.7674 47.8299 92.1667 48.8195 92.1667 50C92.1667 55.6945 91.073 61.0764 88.8855 66.1458C86.698 71.2153 83.7118 75.6424 79.9271 79.4271C76.1424 83.2118 71.7327 86.1979 66.698 88.3854C61.6632 90.5729 56.2639 91.6667 50.5 91.6667Z" fill="black"/>
</svg>
