<svg width="101" height="100" viewBox="0 0 101 100" fill="none" xmlns="http://www.w3.org/2000/svg">
<path d="M43.0806 0.648476C39.3387 1.60921 36.1129 3.1916 21.4677 11.2731C11.0806 17.0375 7.72581 19.6372 4.69355 24.3843C0.887097 30.3183 0.5 32.6919 0.5 50.0982C0.5 66.7698 0.758065 68.5782 3.98387 74.5122C6.8871 79.881 11.7258 83.5544 25.5323 91.0143C40.9516 99.3218 42.8871 100 50.5 100C58.1774 100 60.5645 99.1523 75.3387 91.0708C89.5323 83.3284 91.7903 81.746 95.2742 77.1684C100.048 70.8953 100.5 68.6913 100.5 50.1547C100.5 32.7484 100.242 30.8834 96.9516 25.2886C93.8548 19.9197 89.7258 16.755 76.0484 9.29511C69.0806 5.50867 61.9839 1.9483 60.1774 1.32664C55.7903 -0.142723 47.6613 -0.425293 43.0806 0.648476Z" fill="#93D39B"/>
<path d="M41.1521 63.4925L31.0313 53.9446C29.8938 52.8714 28.0563 52.8714 26.9188 53.9446C25.7813 55.0177 25.7813 56.7512 26.9188 57.8243L39.1105 69.3259C40.248 70.399 42.0855 70.399 43.223 69.3259L74.0813 40.2142C75.2188 39.1411 75.2188 37.4076 74.0813 36.3345C72.9438 35.2614 71.1063 35.2614 69.9688 36.3345L41.1521 63.4925Z" fill="black"/>
</svg>
